<svg width="24" height="24" viewBox="0 0 24 24" fill="none" xmlns="http://www.w3.org/2000/svg">
<path fill-rule="evenodd" clip-rule="evenodd" d="M5.81991 6.4437C5.3999 7.05683 5.3999 7.91633 5.3999 9.63532C5.3999 10.3516 5.3999 10.7097 5.5749 10.9652C5.64473 11.0671 5.73284 11.1552 5.83477 11.225C6.09024 11.4 6.44836 11.4 7.16461 11.4H9.3999C10.3427 11.4 10.8141 11.4 11.107 11.1071C11.3999 10.8142 11.3999 10.3428 11.3999 9.40002V7.16473C11.3999 6.44848 11.3999 6.09036 11.2249 5.83489C11.1551 5.73296 11.067 5.64485 10.965 5.57503C10.7096 5.40002 10.3514 5.40002 9.6352 5.40002C7.9162 5.40002 7.05671 5.40002 6.44358 5.82003C6.19894 5.98761 5.98748 6.19907 5.81991 6.4437ZM5.5749 13.0349C5.3999 13.2904 5.3999 13.6485 5.3999 14.3647C5.3999 16.0837 5.3999 16.9432 5.81991 17.5564C5.98748 17.801 6.19894 18.0124 6.44358 18.18C7.05671 18.6 7.9162 18.6 9.6352 18.6C10.3514 18.6 10.7096 18.6 10.965 18.425C11.067 18.3552 11.1551 18.2671 11.2249 18.1652C11.3999 17.9097 11.3999 17.5516 11.3999 16.8353V14.6C11.3999 13.6572 11.3999 13.1858 11.107 12.8929C10.8141 12.6 10.3427 12.6 9.3999 12.6H7.16461C6.44836 12.6 6.09024 12.6 5.83477 12.775C5.73284 12.8449 5.64473 12.933 5.5749 13.0349ZM12.5999 7.16473C12.5999 6.44848 12.5999 6.09036 12.7749 5.83489C12.8447 5.73296 12.9328 5.64485 13.0348 5.57503C13.2902 5.40002 13.6484 5.40002 14.3646 5.40002C16.0836 5.40002 16.9431 5.40002 17.5562 5.82003C17.8009 5.98761 18.0123 6.19907 18.1799 6.4437C18.5999 7.05683 18.5999 7.91633 18.5999 9.63532C18.5999 10.3516 18.5999 10.7097 18.4249 10.9652C18.3551 11.0671 18.267 11.1552 18.165 11.225C17.9096 11.4 17.5514 11.4 16.8352 11.4H14.5999C13.6571 11.4 13.1857 11.4 12.8928 11.1071C12.5999 10.8142 12.5999 10.3428 12.5999 9.40002V7.16473ZM12.8928 12.8929C12.5999 13.1858 12.5999 13.6572 12.5999 14.6V16.8353C12.5999 17.5516 12.5999 17.9097 12.7749 18.1652C12.8447 18.2671 12.9328 18.3552 13.0348 18.425C13.2902 18.6 13.6484 18.6 14.3646 18.6C16.0836 18.6 16.9431 18.6 17.5562 18.18C17.8009 18.0124 18.0123 17.801 18.1799 17.5564C18.5999 16.9432 18.5999 16.0837 18.5999 14.3647C18.5999 13.6485 18.5999 13.2904 18.4249 13.0349C18.3551 12.933 18.267 12.8449 18.165 12.775C17.9096 12.6 17.5514 12.6 16.8352 12.6H14.5999C13.6571 12.6 13.1857 12.6 12.8928 12.8929Z" fill="black"/>
</svg>
