<svg width="24" height="24" viewBox="0 0 24 24" fill="none" xmlns="http://www.w3.org/2000/svg">
<path fill-rule="evenodd" clip-rule="evenodd" d="M5.71799 6.59202C5.5 7.01984 5.5 7.5799 5.5 8.7C5.5 8.98003 5.5 9.12004 5.5545 9.227C5.60243 9.32108 5.67892 9.39757 5.773 9.4455C5.87996 9.5 6.01997 9.5 6.3 9.5H8.5C8.9714 9.5 9.20711 9.5 9.35355 9.35355C9.5 9.20711 9.5 8.9714 9.5 8.5V6.3C9.5 6.01997 9.5 5.87996 9.4455 5.773C9.39757 5.67892 9.32108 5.60243 9.227 5.5545C9.12004 5.5 8.98003 5.5 8.7 5.5C7.5799 5.5 7.01984 5.5 6.59202 5.71799C6.21569 5.90973 5.90973 6.21569 5.71799 6.59202ZM10 6.5C10 6.0286 10 5.79289 10.1464 5.64645C10.2929 5.5 10.5286 5.5 11 5.5H13C13.4714 5.5 13.7071 5.5 13.8536 5.64645C14 5.79289 14 6.0286 14 6.5V8.5C14 8.9714 14 9.20711 13.8536 9.35355C13.7071 9.5 13.4714 9.5 13 9.5H11C10.5286 9.5 10.2929 9.5 10.1464 9.35355C10 9.20711 10 8.9714 10 8.5V6.5ZM14.5545 5.773C14.5 5.87996 14.5 6.01997 14.5 6.3V8.5C14.5 8.9714 14.5 9.20711 14.6464 9.35355C14.7929 9.5 15.0286 9.5 15.5 9.5H17.7C17.98 9.5 18.12 9.5 18.227 9.4455C18.3211 9.39757 18.3976 9.32108 18.4455 9.227C18.5 9.12004 18.5 8.98003 18.5 8.7C18.5 7.5799 18.5 7.01984 18.282 6.59202C18.0903 6.21569 17.7843 5.90973 17.408 5.71799C16.9802 5.5 16.4201 5.5 15.3 5.5C15.02 5.5 14.88 5.5 14.773 5.5545C14.6789 5.60243 14.6024 5.67892 14.5545 5.773Z" fill="black"/>
<path d="M6.43934 17.5607L6.18221 17.8178L6.43934 17.5607C6.25483 17.3762 6.13453 17.1171 6.06876 16.6279C6.00106 16.1244 6 15.4569 6 14.5V11C6 10.7502 6.00106 10.6131 6.01385 10.518C6.01401 10.5167 6.01418 10.5155 6.01435 10.5143C6.01554 10.5142 6.01675 10.514 6.01799 10.5138C6.11308 10.5011 6.25016 10.5 6.5 10.5H17.5C17.7498 10.5 17.8869 10.5011 17.982 10.5138C17.9833 10.514 17.9845 10.5142 17.9857 10.5143C17.9858 10.5155 17.986 10.5167 17.9862 10.518C17.9989 10.6131 18 10.7502 18 11V14.5C18 15.4569 17.9989 16.1244 17.9312 16.6279C17.8655 17.1171 17.7452 17.3762 17.5607 17.5607C17.3762 17.7452 17.1171 17.8655 16.6279 17.9312C16.1244 17.9989 15.4569 18 14.5 18H9.5C8.54306 18 7.87565 17.9989 7.37208 17.9312C6.8829 17.8655 6.62385 17.7452 6.43934 17.5607Z" stroke="black"/>
</svg>
