<svg width="48" height="48" viewBox="0 0 48 48" fill="none" xmlns="http://www.w3.org/2000/svg">
<g id="fcr_screensharing_on">
<path id="Union" fill-rule="evenodd" clip-rule="evenodd" d="M9 17.001C9 13.6873 11.6863 11.001 15 11.001H33C36.3137 11.001 39 13.6873 39 17.001V25.001C39 25.3487 38.9704 25.6895 38.9136 26.021C37.7567 25.3708 36.4216 25 35 25C31.272 25 28.1395 27.55 27.2518 31.001H15C11.6863 31.001 9 28.3147 9 25.001V17.001ZM27.5818 36.0006C27.2067 35.0742 27.0001 34.0615 27 33.0006H10.5C9.67157 33.0006 9 33.6722 9 34.5006C9 35.329 9.67157 36.0006 10.5 36.0006H27.5818ZM29.0628 16.0895C28.5596 15.5024 27.6758 15.4344 27.0887 15.9376C26.5016 16.4408 26.4337 17.3246 26.9368 17.9117L27.9559 19.1006H21.9998C18.4652 19.1006 15.5998 21.966 15.5998 25.5006H18.3998C18.3998 23.5124 20.0116 21.9006 21.9998 21.9006H30.9998C31.5465 21.9006 32.0433 21.5823 32.2717 21.0856C32.5002 20.5889 32.4186 20.0046 32.0628 19.5895L29.0628 16.0895ZM41 33C41 36.3137 38.3137 39 35 39C31.6863 39 29 36.3137 29 33C29 29.6863 31.6863 27 35 27C38.3137 27 41 29.6863 41 33ZM38.7198 31.6941L34.8627 35.6941L34.1798 36.4023L33.4605 35.7311L31.3177 33.7311L32.6823 32.2689L34.1059 33.5977L37.2802 30.3059L38.7198 31.6941Z" fill="#F5655C"/>
</g>
</svg>
