<svg width="48" height="48" viewBox="0 0 48 48" fill="none" xmlns="http://www.w3.org/2000/svg">
<path fill-rule="evenodd" clip-rule="evenodd" d="M14.8695 19.2675C14.6976 20.743 15.2091 22.2777 16.3838 23.3629L24.0043 30.4034C25.1038 31.4193 26.5499 31.8248 27.9256 31.6364L14.8695 19.2675ZM31.8205 28.4388C32.4068 26.7367 32.006 24.7809 30.6526 23.4453C31.9798 21.2728 31.6359 18.394 29.6945 16.6004C27.7531 14.8068 24.8562 14.6913 22.7953 16.1861C21.4274 15.0031 19.5684 14.7234 17.9699 15.3172L31.8205 28.4388ZM18.1908 25.0327L10.6487 35.6712C10.2925 36.1736 10.3644 36.8624 10.8168 37.2804C11.278 37.7065 11.9867 37.7151 12.4581 37.3004L22.1972 28.7342L18.1908 25.0327ZM32.2378 9.41983C30.3895 7.71213 27.3846 8.83891 27.1148 11.3409C27.0108 12.3047 27.3694 13.2608 28.0814 13.9187L32.4951 17.9964C33.2071 18.6542 34.1885 18.9361 35.1411 18.7564C37.614 18.2897 38.4999 15.2052 36.6515 13.4975L32.2378 9.41983Z" fill="black"/>
<path fill-rule="evenodd" clip-rule="evenodd" d="M12.9111 13.9684C13.4808 13.367 14.4302 13.3413 15.0316 13.9111L34.0316 31.9111C34.633 32.4808 34.6587 33.4302 34.0889 34.0316C33.5192 34.633 32.5698 34.6587 31.9684 34.0889L12.9684 16.0889C12.367 15.5192 12.3413 14.5698 12.9111 13.9684Z" fill="#F5655C"/>
</svg>
