<svg width="48" height="48" viewBox="0 0 48 48" fill="none" xmlns="http://www.w3.org/2000/svg">
<path fill-rule="evenodd" clip-rule="evenodd" d="M9 17C9 13.6863 11.6863 11 15 11H33C36.3137 11 39 13.6863 39 17V25C39 28.3137 36.3137 31 33 31H15C11.6863 31 9 28.3137 9 25V17ZM9 34.4999C9 33.6714 9.67158 32.9999 10.5 32.9999H37.5C38.3284 32.9999 39 33.6714 39 34.4999C39 35.3283 38.3284 35.9999 37.5 35.9999H10.5C9.67158 35.9999 9 35.3283 9 34.4999ZM29.0628 16.0887C28.5596 15.5016 27.6758 15.4337 27.0887 15.9369C26.5016 16.44 26.4337 17.3239 26.9369 17.9109L27.9559 19.0998H21.9998C18.4652 19.0998 15.5998 21.9652 15.5998 25.4998C15.5998 26.273 16.2266 26.8998 16.9998 26.8998C17.773 26.8998 18.3998 26.273 18.3998 25.4998C18.3998 23.5116 20.0116 21.8998 21.9998 21.8998H30.9998C31.5466 21.8998 32.0433 21.5815 32.2717 21.0848C32.5002 20.5881 32.4186 20.0038 32.0628 19.5887L29.0628 16.0887Z" fill="#16D1A4"/>
</svg>
