<svg width="48" height="48" viewBox="0 0 48 48" fill="none" xmlns="http://www.w3.org/2000/svg">
<path fill-rule="evenodd" clip-rule="evenodd" d="M16.1149 16.5624C14.3113 18.5146 14.4318 21.5593 16.384 23.3629L24.0045 30.4034C25.9567 32.2071 29.0014 32.0866 30.8051 30.1344C32.572 28.2218 32.4923 25.2607 30.6527 23.4453C31.98 21.2728 31.636 18.3941 29.6946 16.6004C27.7533 14.8068 24.8564 14.6913 22.7955 16.1861C20.8404 14.4953 17.882 14.6497 16.1149 16.5624ZM10.6489 35.6711L18.191 25.0327L22.1974 28.7342L12.4584 37.3004C11.9869 37.7151 11.2782 37.7064 10.817 37.2803C10.3646 36.8624 10.2927 36.1736 10.6489 35.6711ZM27.1149 11.3409C27.3847 8.83895 30.3896 7.71216 32.238 9.41986L36.6516 13.4976C38.5 15.2053 37.6142 18.2898 35.1413 18.7564C34.1887 18.9361 33.2073 18.6543 32.4952 17.9964L28.0816 13.9187C27.3695 13.2609 27.011 12.3048 27.1149 11.3409Z" fill="black"/>
</svg>
