<svg width="48" height="48" viewBox="0 0 48 48" fill="none" xmlns="http://www.w3.org/2000/svg">
<path d="M24 37C16.8354 37 11 31.1646 11 24C11 16.8354 16.8354 11 24 11C31.1645 11 37 16.8354 37 24C37 31.1646 31.1645 37 24 37ZM24 13.5316C18.2278 13.5316 13.5316 18.2278 13.5316 24C13.5316 29.7722 18.2278 34.4684 24 34.4684C29.7721 34.4684 34.4683 29.7722 34.4683 24C34.4683 18.2278 29.7721 13.5316 24 13.5316Z" fill="#2F2F2F" fill-opacity="0.95"/>
<path d="M23.9999 30.5569C22.977 30.5554 21.9685 30.3156 21.0544 29.8563C20.1403 29.3971 19.3459 28.7312 18.7341 27.9113C18.6344 27.7778 18.5621 27.6259 18.5215 27.4643C18.4808 27.3027 18.4726 27.1346 18.4973 26.9698C18.5221 26.805 18.5792 26.6468 18.6655 26.5042C18.7517 26.3616 18.8654 26.2376 18.9999 26.1392C19.1334 26.0395 19.2854 25.9672 19.447 25.9266C19.6086 25.8859 19.7766 25.8777 19.9414 25.9025C20.1062 25.9272 20.2645 25.9843 20.4071 26.0706C20.5496 26.1568 20.6737 26.2705 20.7721 26.405C21.1452 26.9134 21.6333 27.3263 22.1965 27.6101C22.7597 27.8939 23.3819 28.0405 24.0126 28.0379C25.291 28.0379 26.4683 27.443 27.2404 26.4177C27.6581 25.8607 28.4556 25.7468 29.0126 26.1645C29.5695 26.5822 29.6834 27.3797 29.2657 27.9367C28.6477 28.748 27.8514 29.4063 26.9383 29.8607C26.0252 30.315 25.0198 30.5533 23.9999 30.5569ZM19.9746 24.2405C19.2784 24.2405 18.7088 23.6708 18.7088 22.9746V21.2911C18.7088 20.5949 19.2784 20.0253 19.9746 20.0253C20.6708 20.0253 21.2404 20.5949 21.2404 21.2911V22.9746C21.2404 23.6708 20.6835 24.2405 19.9746 24.2405ZM27.2657 24.2405C26.5695 24.2405 25.9999 23.6708 25.9999 22.9746V21.2911C25.9999 20.5949 26.5695 20.0253 27.2657 20.0253C27.9619 20.0253 28.5315 20.5949 28.5315 21.2911V22.9746C28.5315 23.6708 27.9619 24.2405 27.2657 24.2405Z" fill="#2F2F2F" fill-opacity="0.95"/>
</svg>
