<svg width="48" height="48" viewBox="0 0 48 48" fill="none" xmlns="http://www.w3.org/2000/svg">
<g id="fcr_setting">
<path id="Vector" d="M35.718 21.4155C34.5015 20.998 33.423 20.161 32.7295 18.96C32.036 17.7585 31.8505 16.4065 32.097 15.1445C30.8265 13.982 29.305 13.09 27.623 12.558C26.653 13.4035 25.388 13.92 24 13.92C22.612 13.92 21.347 13.4035 20.377 12.558C18.6955 13.09 17.1735 13.982 15.903 15.1445C16.15 16.4065 15.964 17.7585 15.2705 18.96C14.577 20.161 13.4985 20.998 12.282 21.4155C12.0995 22.248 12 23.112 12 24C12 24.8875 12.0995 25.7515 12.282 26.584C13.4985 27.0015 14.577 27.8385 15.2705 29.04C15.964 30.241 16.15 31.5935 15.903 32.8555C17.1735 34.0175 18.6955 34.91 20.377 35.442C21.347 34.596 22.612 34.08 24 34.08C25.388 34.08 26.653 34.596 27.623 35.442C29.305 34.91 30.8265 34.0175 32.097 32.8555C31.8505 31.5935 32.036 30.241 32.7295 29.04C33.423 27.8385 34.5015 27.0015 35.718 26.584C35.901 25.7515 36 24.8875 36 24C36 23.112 35.901 22.248 35.718 21.4155ZM28.5003 23.9998C28.5003 26.4853 26.4858 28.4998 24.0003 28.4998C21.5148 28.4998 19.5003 26.4853 19.5003 23.9998C19.5003 21.5143 21.5148 19.4998 24.0003 19.4998C26.4858 19.4998 28.5003 21.5143 28.5003 23.9998Z" stroke="black" stroke-width="2.11237"/>
</g>
</svg>
