<svg width="48" height="48" viewBox="0 0 48 48" fill="none" xmlns="http://www.w3.org/2000/svg">
<path fill-rule="evenodd" clip-rule="evenodd" d="M25 16.8H15C13.2327 16.8 11.8 18.2327 11.8 20V28C11.8 29.7673 13.2327 31.2 15 31.2H25C26.7673 31.2 28.2 29.7673 28.2 28V20C28.2 18.2327 26.7673 16.8 25 16.8ZM15 14C11.6863 14 9 16.6863 9 20V28C9 31.3137 11.6863 34 15 34H25C28.3137 34 31 31.3137 31 28V20C31 16.6863 28.3137 14 25 14H15ZM36.2 19.4409V28.5591L34.8 27.5591V20.4409L36.2 19.4409ZM35.8375 16.2589C37.1613 15.3134 39 16.2596 39 17.8864V30.1136C39 31.7404 37.1613 32.6866 35.8375 31.7411L32.8375 29.5982C32.3119 29.2228 32 28.6167 32 27.9708V20.0292C32 19.3833 32.3119 18.7772 32.8375 18.4018L35.8375 16.2589ZM17.5 24C18.8807 24 20 22.8807 20 21.5C20 20.1193 18.8807 19 17.5 19C16.1193 19 15 20.1193 15 21.5C15 22.8807 16.1193 24 17.5 24Z" fill="#2F2F2F" fill-opacity="0.95"/>
</svg>
