<svg width="48" height="48" viewBox="0 0 48 48" fill="none" xmlns="http://www.w3.org/2000/svg">
<g opacity="0.9">
<path fill-rule="evenodd" clip-rule="evenodd" d="M27.6878 23.5267V17.2764C27.6878 15.4552 26.2114 13.9788 24.3903 13.9788C22.5691 13.9788 21.0927 15.4552 21.0927 17.2764V17.3195L18.7037 15.0711C19.5876 12.7935 21.8004 11.1788 24.3903 11.1788C27.7578 11.1788 30.4878 13.9088 30.4878 17.2764V25.4064C30.4878 25.6488 30.4737 25.8878 30.4462 26.1228L27.6878 23.5267ZM21.0927 24.2974V25.4064C21.0927 27.2276 22.5691 28.704 24.3903 28.704C24.7989 28.704 25.1902 28.6296 25.5514 28.4938L27.7078 30.5233C26.753 31.1437 25.6137 31.504 24.3903 31.504C21.0227 31.504 18.2927 28.774 18.2927 25.4064V21.6621L21.0927 24.2974ZM28.9192 31.6635C27.6469 32.586 26.0821 33.13 24.3904 33.13C20.1248 33.13 16.6668 29.672 16.6668 25.4064V22.3576C16.6668 21.5719 16.0298 20.9349 15.244 20.9349C14.4583 20.9349 13.8213 21.5719 13.8213 22.3576V25.4064C13.8213 31.2436 18.5532 35.9755 24.3904 35.9755C26.9002 35.9755 29.2057 35.1007 31.0185 33.6393L28.9192 31.6635ZM34.1081 29.5692C34.656 28.2918 34.9594 26.8845 34.9594 25.4064V22.3576C34.9594 21.5719 34.3225 20.9349 33.5367 20.9349C32.7509 20.9349 32.1139 21.5719 32.1139 22.3576V25.4064C32.1139 26.1096 32.02 26.7908 31.8439 27.4383L34.1081 29.5692Z" fill="black"/>
<path d="M33.5366 32.5203L16.2603 16.2601" stroke="#F5655C" stroke-width="3.04877" stroke-linecap="round" stroke-linejoin="round"/>
</g>
</svg>
