<svg width="48" height="48" viewBox="0 0 48 48" fill="none" xmlns="http://www.w3.org/2000/svg">
<path fill-rule="evenodd" clip-rule="evenodd" d="M33.4603 31.9082L34.2831 31.2365C36.4096 29.5006 37.7619 26.8514 37.7619 23.8294C37.7619 18.5527 33.4878 14.2381 28.1706 14.2381C22.8533 14.2381 18.5792 18.5526 18.5792 23.8294C18.5792 28.9516 22.6561 33.1796 27.737 33.4207H33.4603V32.9703V31.9082ZM27.6866 35.6588C21.3955 35.3899 16.3412 30.1742 16.3412 23.8294C16.3412 17.3232 21.6106 12 28.1706 12C34.7305 12 40 17.3232 40 23.8294C40 27.5395 38.3331 30.8195 35.6984 32.9703V34.5834C35.6984 35.1211 35.1607 35.6588 34.623 35.6588H27.6866ZM17.882 16.5519L17.0389 18.2227C16.1878 19.9093 15.7088 21.814 15.7088 23.8286C15.7088 27.4694 17.2891 30.7597 19.8064 33.0483L21.1838 34.3007L19.3788 34.7564C18.7839 34.9065 18.1666 34.9983 17.5338 35.0253L17.5125 35.0263H17.4911H12.7074C12.1971 35.0263 11.7703 34.7811 11.491 34.5019C11.2118 34.2226 10.9666 33.7958 10.9666 33.2855V32.6303C9.13669 30.9654 8 28.5591 8 25.8689C8 21.2133 11.4848 17.3406 16.0247 16.7809L17.882 16.5519ZM14.4564 19.236C11.8359 20.304 9.99828 22.8805 9.99828 25.8689C9.99828 28.1204 11.0074 30.1009 12.5976 31.399L12.9649 31.6988V32.173V33.028H17.0314C14.9603 30.5252 13.7105 27.3173 13.7105 23.8286C13.7105 22.226 13.9724 20.681 14.4564 19.236ZM25.3051 22.3911C25.3051 21.773 24.8041 21.272 24.1861 21.272C23.5681 21.272 23.0671 21.773 23.0671 22.3911V22.9905C23.0671 25.9262 25.4469 28.306 28.3825 28.306C31.3181 28.306 33.6979 25.9262 33.6979 22.9905V22.3911C33.6979 21.773 33.1969 21.272 32.5789 21.272C31.9609 21.272 31.4599 21.773 31.4599 22.3911V22.9905C31.4599 24.6901 30.0821 26.0679 28.3825 26.0679C26.6829 26.0679 25.3051 24.6901 25.3051 22.9905V22.3911Z" fill="black"/>
</svg>
