<svg width="48" height="48" viewBox="0 0 48 48" fill="none" xmlns="http://www.w3.org/2000/svg">
<path fill-rule="evenodd" clip-rule="evenodd" d="M9 20C9 18.99 9.24957 18.0382 9.69041 17.2031L11.8816 19.2789C11.8282 19.5107 11.8 19.752 11.8 20V28C11.8 29.7673 13.2327 31.2 15 31.2H24.4649L27.0436 33.643C26.4058 33.874 25.7176 34 25 34H15C11.6863 34 9 31.3137 9 28V20ZM28.2 20V27.851L30.6095 30.1337C30.8618 29.4707 31 28.7515 31 28V20C31 16.6863 28.3137 14 25 14H15C14.5618 14 14.1347 14.047 13.7232 14.1361L16.5351 16.8H25C26.7673 16.8 28.2 18.2327 28.2 20ZM36.2 28.5591V19.4409L34.8 20.4409V27.5591L36.2 28.5591ZM39 17.8864C39 16.2596 37.1613 15.3134 35.8375 16.2589L32.8375 18.4018C32.3119 18.7772 32 19.3833 32 20.0292V27.9708C32 28.6167 32.3119 29.2228 32.8375 29.5982L35.8375 31.7411C37.1613 32.6866 39 31.7404 39 30.1136V17.8864Z" fill="#2F2F2F" fill-opacity="0.95"/>
<path d="M30 33L11 15" stroke="#F5655C" stroke-width="3" stroke-linecap="round" stroke-linejoin="round"/>
</svg>
